HIERARCHY
ROOT mixamorig:Hips
{
	OFFSET -0.000008 104.274872 1.554316
	CHANNELS 6 Xposition Yposition Zposition Xrotation Yrotation Zrotation
	JOINT mixamorig:Spine
	{
		OFFSET -0.000005 10.181595 0.131519
		CHANNELS 6 Xposition Yposition Zposition Xrotation Yrotation Zrotation
		JOINT mixamorig:Spine1
		{
			OFFSET -0.000000 9.893959 -1.470707
			CHANNELS 6 Xposition Yposition Zposition Xrotation Yrotation Zrotation
			JOINT mixamorig:Spine2
			{
				OFFSET -0.000000 9.220757 -1.370641
				CHANNELS 6 Xposition Yposition Zposition Xrotation Yrotation Zrotation
				JOINT mixamorig:Neck
				{
					OFFSET 0.000001 16.740417 -2.049036
					CHANNELS 6 Xposition Yposition Zposition Xrotation Yrotation Zrotation
					JOINT mixamorig:Head
					{
						OFFSET 0.000000 9.617874 1.685006
						CHANNELS 6 Xposition Yposition Zposition Xrotation Yrotation Zrotation
						JOINT mixamorig:HeadTop_End
						{
							OFFSET 0.000002 22.037354 7.501101
							CHANNELS 6 Xposition Yposition Zposition Xrotation Yrotation Zrotation
							End Site
							{
								OFFSET 0.000168 2310.654297 -282.823242
							}
						}
					}
				}
				JOINT mixamorig:RightShoulder
				{
					OFFSET -4.569970 11.014908 -2.160885
					CHANNELS 6 Xposition Yposition Zposition Xrotation Yrotation Zrotation
					JOINT mixamorig:RightArm
					{
						OFFSET -10.592851 -0.524811 -2.232101
						CHANNELS 6 Xposition Yposition Zposition Xrotation Yrotation Zrotation
						JOINT mixamorig:RightForeArm
						{
							OFFSET -27.841511 0.000031 -0.000004
							CHANNELS 6 Xposition Yposition Zposition Xrotation Yrotation Zrotation
							JOINT mixamorig:RightHand
							{
								OFFSET -28.328831 -0.000015 0.000015
								CHANNELS 6 Xposition Yposition Zposition Xrotation Yrotation Zrotation
								JOINT mixamorig:RightHandThumb1
								{
									OFFSET -2.464806 -1.573990 2.681852
									CHANNELS 6 Xposition Yposition Zposition Xrotation Yrotation Zrotation
									JOINT mixamorig:RightHandThumb2
									{
										OFFSET -3.215179 -1.872803 1.924282
										CHANNELS 6 Xposition Yposition Zposition Xrotation Yrotation Zrotation
										JOINT mixamorig:RightHandThumb3
										{
											OFFSET -2.654831 -1.527969 1.512609
											CHANNELS 6 Xposition Yposition Zposition Xrotation Yrotation Zrotation
											JOINT mixamorig:RightHandThumb4
											{
												OFFSET -2.018814 -1.152008 1.108052
												CHANNELS 6 Xposition Yposition Zposition Xrotation Yrotation Zrotation
												End Site
												{
													OFFSET -188.809540 -114.533607 132.431396
												}
											}
										}
									}
								}
								JOINT mixamorig:RightHandIndex1
								{
									OFFSET -9.108284 -0.517868 2.259835
									CHANNELS 6 Xposition Yposition Zposition Xrotation Yrotation Zrotation
									JOINT mixamorig:RightHandIndex2
									{
										OFFSET -3.699989 0.000000 0.001215
										CHANNELS 6 Xposition Yposition Zposition Xrotation Yrotation Zrotation
										JOINT mixamorig:RightHandIndex3
										{
											OFFSET -2.850006 0.000031 -0.000522
											CHANNELS 6 Xposition Yposition Zposition Xrotation Yrotation Zrotation
											JOINT mixamorig:RightHandIndex4
											{
												OFFSET -2.772186 -0.000015 -0.000020
												CHANNELS 6 Xposition Yposition Zposition Xrotation Yrotation Zrotation
												End Site
												{
													OFFSET -277.218445 0.000000 -0.050231
												}
											}
										}
									}
								}
								JOINT mixamorig:RightHandMiddle1
								{
									OFFSET -9.532516 -0.000031 -0.000023
									CHANNELS 6 Xposition Yposition Zposition Xrotation Yrotation Zrotation
									JOINT mixamorig:RightHandMiddle2
									{
										OFFSET -3.700005 -0.000015 0.003713
										CHANNELS 6 Xposition Yposition Zposition Xrotation Yrotation Zrotation
										JOINT mixamorig:RightHandMiddle3
										{
											OFFSET -2.949974 0.000015 -0.002054
											CHANNELS 6 Xposition Yposition Zposition Xrotation Yrotation Zrotation
											JOINT mixamorig:RightHandMiddle4
											{
												OFFSET -2.946640 0.000000 -0.000156
												CHANNELS 6 Xposition Yposition Zposition Xrotation Yrotation Zrotation
												End Site
												{
													OFFSET -294.664337 0.000000 -0.113670
												}
											}
										}
									}
								}
								JOINT mixamorig:RightHandRing1
								{
									OFFSET -9.103600 -0.043076 -1.865134
									CHANNELS 6 Xposition Yposition Zposition Xrotation Yrotation Zrotation
									JOINT mixamorig:RightHandRing2
									{
										OFFSET -3.379288 0.000000 -0.001055
										CHANNELS 6 Xposition Yposition Zposition Xrotation Yrotation Zrotation
										JOINT mixamorig:RightHandRing3
										{
											OFFSET -2.889687 -0.000015 0.000379
											CHANNELS 6 Xposition Yposition Zposition Xrotation Yrotation Zrotation
											JOINT mixamorig:RightHandRing4
											{
												OFFSET -2.638809 -0.000015 0.000941
												CHANNELS 6 Xposition Yposition Zposition Xrotation Yrotation Zrotation
												End Site
												{
													OFFSET -263.880371 0.000000 0.516020
												}
											}
										}
									}
								}
								JOINT mixamorig:RightHandPinky1
								{
									OFFSET -8.076683 -0.486710 -3.806280
									CHANNELS 6 Xposition Yposition Zposition Xrotation Yrotation Zrotation
									JOINT mixamorig:RightHandPinky2
									{
										OFFSET -3.600014 -0.000015 -0.003747
										CHANNELS 6 Xposition Yposition Zposition Xrotation Yrotation Zrotation
										JOINT mixamorig:RightHandPinky3
										{
											OFFSET -2.099983 0.000000 -0.005739
											CHANNELS 6 Xposition Yposition Zposition Xrotation Yrotation Zrotation
											JOINT mixamorig:RightHandPinky4
											{
												OFFSET -2.115768 -0.000031 -0.003680
												CHANNELS 6 Xposition Yposition Zposition Xrotation Yrotation Zrotation
												End Site
												{
													OFFSET -211.577087 0.000000 -0.350686
												}
											}
										}
									}
								}
							}
						}
					}
				}
				JOINT mixamorig:LeftShoulder
				{
					OFFSET 4.570447 11.014725 -2.160855
					CHANNELS 6 Xposition Yposition Zposition Xrotation Yrotation Zrotation
					JOINT mixamorig:LeftArm
					{
						OFFSET 10.592371 -0.524597 -2.232119
						CHANNELS 6 Xposition Yposition Zposition Xrotation Yrotation Zrotation
						JOINT mixamorig:LeftForeArm
						{
							OFFSET 27.841532 -0.000031 0.000026
							CHANNELS 6 Xposition Yposition Zposition Xrotation Yrotation Zrotation
							JOINT mixamorig:LeftHand
							{
								OFFSET 28.328846 -0.000061 0.000022
								CHANNELS 6 Xposition Yposition Zposition Xrotation Yrotation Zrotation
								JOINT mixamorig:LeftHandThumb1
								{
									OFFSET 2.466141 -1.576172 2.681732
									CHANNELS 6 Xposition Yposition Zposition Xrotation Yrotation Zrotation
									JOINT mixamorig:LeftHandThumb2
									{
										OFFSET 3.217812 -1.872070 1.916482
										CHANNELS 6 Xposition Yposition Zposition Xrotation Yrotation Zrotation
										JOINT mixamorig:LeftHandThumb3
										{
											OFFSET 2.656029 -1.528778 1.514513
											CHANNELS 6 Xposition Yposition Zposition Xrotation Yrotation Zrotation
											JOINT mixamorig:LeftHandThumb4
											{
												OFFSET 2.020889 -1.154053 1.115139
												CHANNELS 6 Xposition Yposition Zposition Xrotation Yrotation Zrotation
												End Site
												{
													OFFSET 190.885437 -115.081749 130.048782
												}
											}
										}
									}
								}
								JOINT mixamorig:LeftHandIndex1
								{
									OFFSET 9.109314 -0.518021 2.259871
									CHANNELS 6 Xposition Yposition Zposition Xrotation Yrotation Zrotation
									JOINT mixamorig:LeftHandIndex2
									{
										OFFSET 3.699989 0.000000 -0.000322
										CHANNELS 6 Xposition Yposition Zposition Xrotation Yrotation Zrotation
										JOINT mixamorig:LeftHandIndex3
										{
											OFFSET 2.850006 0.000000 0.000352
											CHANNELS 6 Xposition Yposition Zposition Xrotation Yrotation Zrotation
											JOINT mixamorig:LeftHandIndex4
											{
												OFFSET 2.774864 -0.000031 -0.000027
												CHANNELS 6 Xposition Yposition Zposition Xrotation Yrotation Zrotation
												End Site
												{
													OFFSET 277.486267 0.000000 -0.009857
												}
											}
										}
									}
								}
								JOINT mixamorig:LeftHandMiddle1
								{
									OFFSET 9.533394 0.000061 0.000044
									CHANNELS 6 Xposition Yposition Zposition Xrotation Yrotation Zrotation
									JOINT mixamorig:LeftHandMiddle2
									{
										OFFSET 3.699989 -0.000015 -0.000231
										CHANNELS 6 Xposition Yposition Zposition Xrotation Yrotation Zrotation
										JOINT mixamorig:LeftHandMiddle3
										{
											OFFSET 2.949997 -0.000015 -0.000059
											CHANNELS 6 Xposition Yposition Zposition Xrotation Yrotation Zrotation
											JOINT mixamorig:LeftHandMiddle4
											{
												OFFSET 2.952896 0.000031 0.000063
												CHANNELS 6 Xposition Yposition Zposition Xrotation Yrotation Zrotation
												End Site
												{
													OFFSET 295.289337 0.000000 0.022810
												}
											}
										}
									}
								}
								JOINT mixamorig:LeftHandRing1
								{
									OFFSET 9.104523 -0.042999 -1.865074
									CHANNELS 6 Xposition Yposition Zposition Xrotation Yrotation Zrotation
									JOINT mixamorig:LeftHandRing2
									{
										OFFSET 3.150009 -0.000031 0.000043
										CHANNELS 6 Xposition Yposition Zposition Xrotation Yrotation Zrotation
										JOINT mixamorig:LeftHandRing3
										{
											OFFSET 2.949982 -0.000015 0.000040
											CHANNELS 6 Xposition Yposition Zposition Xrotation Yrotation Zrotation
											JOINT mixamorig:LeftHandRing4
											{
												OFFSET 2.644348 0.000000 0.000057
												CHANNELS 6 Xposition Yposition Zposition Xrotation Yrotation Zrotation
												End Site
												{
													OFFSET 264.434631 0.000000 0.012105
												}
											}
										}
									}
								}
								JOINT mixamorig:LeftHandPinky1
								{
									OFFSET 8.077789 -0.486847 -3.806259
									CHANNELS 6 Xposition Yposition Zposition Xrotation Yrotation Zrotation
									JOINT mixamorig:LeftHandPinky2
									{
										OFFSET 3.599953 0.000031 0.014727
										CHANNELS 6 Xposition Yposition Zposition Xrotation Yrotation Zrotation
										JOINT mixamorig:LeftHandPinky3
										{
											OFFSET 2.100021 0.000015 0.007705
											CHANNELS 6 Xposition Yposition Zposition Xrotation Yrotation Zrotation
											JOINT mixamorig:LeftHandPinky4
											{
												OFFSET 2.125504 0.000031 0.007517
												CHANNELS 6 Xposition Yposition Zposition Xrotation Yrotation Zrotation
												End Site
												{
													OFFSET 212.550781 0.000000 0.625752
												}
											}
										}
									}
								}
							}
						}
					}
				}
			}
		}
	}
	JOINT mixamorig:RightUpLeg
	{
		OFFSET -8.207787 -6.751648 -1.599560
		CHANNELS 6 Xposition Yposition Zposition Xrotation Yrotation Zrotation
		JOINT mixamorig:RightLeg
		{
			OFFSET -0.000002 -44.370117 0.345942
			CHANNELS 6 Xposition Yposition Zposition Xrotation Yrotation Zrotation
			JOINT mixamorig:RightFoot
			{
				OFFSET 0.000003 -44.423679 -3.043532
				CHANNELS 6 Xposition Yposition Zposition Xrotation Yrotation Zrotation
				JOINT mixamorig:RightToeBase
				{
					OFFSET -0.000002 -8.728671 10.710558
					CHANNELS 6 Xposition Yposition Zposition Xrotation Yrotation Zrotation
					JOINT mixamorig:RightToe_End
					{
						OFFSET -0.000001 -0.000679 9.278119
						CHANNELS 6 Xposition Yposition Zposition Xrotation Yrotation Zrotation
						End Site
						{
							OFFSET 0.000000 -0.067690 927.812134
						}
					}
				}
			}
		}
	}
	JOINT mixamorig:LeftUpLeg
	{
		OFFSET 8.207793 -6.751686 -1.599556
		CHANNELS 6 Xposition Yposition Zposition Xrotation Yrotation Zrotation
		JOINT mixamorig:LeftLeg
		{
			OFFSET -0.000004 -44.370014 0.346954
			CHANNELS 6 Xposition Yposition Zposition Xrotation Yrotation Zrotation
			JOINT mixamorig:LeftFoot
			{
				OFFSET -0.000001 -44.423672 -3.044401
				CHANNELS 6 Xposition Yposition Zposition Xrotation Yrotation Zrotation
				JOINT mixamorig:LeftToeBase
				{
					OFFSET -0.000002 -8.728669 10.710558
					CHANNELS 6 Xposition Yposition Zposition Xrotation Yrotation Zrotation
					JOINT mixamorig:LeftToe_End
					{
						OFFSET -0.000003 -0.000679 9.278133
						CHANNELS 6 Xposition Yposition Zposition Xrotation Yrotation Zrotation
						End Site
						{
							OFFSET 0.000000 -0.068021 927.813477
						}
					}
				}
			}
		}
	}
}
MOTION
Frames: 3
Frame Time: 0.033333
0.000006 104.270477 1.554256 0.000010 0.000003 -0.000113 -0.000005 10.181587 0.131522 0.000001 -0.000003 0.000084 -0.000000 9.893967 -1.470711 0.000001 0.000000 -0.000000 -0.000000 9.220802 -1.370642 0.000000 -0.000000 -0.000000 0.000001 16.740433 -2.049030 0.000000 -0.000000 -0.000000 0.000000 9.617859 1.685014 0.000000 0.000000 0.000000 0.000002 22.037384 7.501101 0.000000 -0.000000 0.000000 -4.569968 11.014880 -2.160881 0.000008 0.000001 -0.000038 -10.592779 -0.524834 -2.231737 67.215700 69.031417 -49.123895 -27.841499 -0.000003 0.000587 54.393256 106.661744 -69.224234 -28.328829 0.000023 0.000028 -0.000318 -0.000045 0.000007 -2.464525 -1.574180 2.682089 91.851243 -126.976878 140.080432 -3.214870 -1.873045 1.924622 235.469952 -44.112633 -64.472410 -2.654536 -1.528192 1.513090 197.967241 -35.853377 -95.257725 -2.018830 -1.152013 1.108064 -0.000003 -0.000000 0.000000 -9.108281 -0.517809 2.260396 224.622874 20.565105 -312.266195 -3.699908 0.000145 0.001824 26.025968 160.562762 -106.923982 -2.849925 0.000140 0.000094 -155.671144 16.755817 68.682750 -2.772170 -0.000016 -0.000014 0.000002 0.000001 -0.000000 -9.532352 0.000103 0.000567 194.613400 15.308744 -267.342347 -3.700055 0.000210 0.004202 -34.791150 169.470353 147.527865 -2.950037 0.000359 -0.001814 96.685863 7.100227 -7.970925 -2.946625 -0.000000 -0.000156 0.000000 -0.000001 0.000000 -9.103394 -0.043082 -1.864542 176.884619 13.172858 -153.132855 -3.379137 0.000398 -0.000885 96.821886 -18.348914 20.617010 -2.889584 0.000194 0.000333 36.405895 -22.543816 7.495866 -2.638808 -0.000036 0.000938 -0.000000 -0.000001 -0.000000 -8.076468 -0.486710 -3.805702 178.222708 6.237910 -145.579881 -3.599737 0.000314 -0.003633 -91.226855 -146.272217 -146.862741 -2.099845 0.000110 -0.005795 22.958820 -25.353744 5.222942 -2.115786 -0.000054 -0.003684 -0.000002 0.000003 -0.000008 4.570446 11.014691 -2.160851 -0.000018 0.000010 -0.000021 10.592519 -0.524559 -2.232372 55.807522 -72.228690 42.249440 27.841742 -0.000077 -0.000093 62.486068 -105.596842 77.262670 28.328831 -0.000028 0.000021 0.000021 -0.000090 0.000000 2.466118 -1.576159 2.681880 -138.030583 58.279559 83.254234 3.217839 -1.871982 1.916542 75.057693 144.083291 -133.969038 2.656068 -1.528726 1.514620 252.431634 25.400534 43.431120 2.020891 -1.154054 1.115143 0.000004 0.000004 0.000002 9.109237 -0.517818 2.260122 258.732156 -20.673473 -25.061118 3.699888 0.000253 -0.000086 241.966609 -18.860367 -30.936235 2.849903 0.000335 0.000560 227.877063 -15.469562 -34.021336 2.774879 -0.000045 -0.000028 0.000000 -0.000002 0.000000 9.533194 0.000048 0.000153 183.751322 -22.024179 -160.925049 3.700063 0.000280 -0.000329 130.541663 -7.984032 17.226668 2.950008 0.000255 -0.000211 284.171605 -182.272067 -182.913818 2.952871 -0.000027 0.000067 0.000002 0.000000 0.000001 9.104506 -0.043064 -1.865013 174.147557 -19.668838 147.151317 3.149945 0.000293 -0.000147 103.881201 12.145915 -15.474962 2.949896 0.000174 -0.000194 67.250138 26.327032 -17.680874 2.644328 0.000030 0.000062 -0.000000 0.000000 -0.000001 8.077683 -0.486892 -3.806176 177.787707 -17.342716 -191.107805 3.599878 0.000317 0.014520 106.154582 14.023292 -18.189029 2.099921 0.000144 0.007491 240.501288 152.070597 163.581473 2.125519 -0.000012 0.007514 -0.000000 -0.000001 0.000000 -8.207786 -6.751667 -1.599560 -0.077001 -0.000003 0.000080 -0.000002 -44.370110 0.345938 0.153719 -0.000000 -0.000000 0.000000 -44.423679 -3.043532 -0.076700 0.000000 -0.000002 -0.000006 -8.728667 10.710559 -0.000009 -0.000000 -0.000000 -0.000001 -0.000679 9.278123 0.000000 -0.000000 -0.000000 8.207792 -6.751710 -1.599556 -0.074518 -0.000003 0.000081 -0.000002 -44.370014 0.346960 0.148822 0.000002 0.000000 -0.000001 -44.423664 -3.044403 -0.074314 0.000000 -0.000002 -0.000004 -8.728671 10.710558 0.000007 -0.000000 -0.000000 0.000000 -0.000680 9.278137 -0.000000 0.000000 -0.000001 
0.000006 104.270477 1.554256 0.000010 0.000003 -0.000113 -0.000005 10.181587 0.131522 0.000001 -0.000003 0.000084 -0.000000 9.893967 -1.470711 0.000001 0.000000 -0.000000 -0.000000 9.220802 -1.370642 0.000000 -0.000000 -0.000000 0.000001 16.740433 -2.049030 0.000000 -0.000000 -0.000000 0.000000 9.617859 1.685014 0.000000 0.000000 0.000000 0.000002 22.037384 7.501101 0.000000 -0.000000 0.000000 -4.569968 11.014880 -2.160881 0.000008 0.000001 -0.000038 -10.592778 -0.524840 -2.231739 66.349298 68.879166 -48.292982 -27.841505 -0.000005 0.000577 61.767620 108.480227 -79.420367 -28.328829 0.000022 0.000025 -0.000321 -0.000044 0.000007 -2.464486 -1.574176 2.682083 95.053441 -118.599200 139.944688 -3.214965 -1.873044 1.924554 251.346426 -38.300822 -49.622875 -2.654690 -1.528255 1.513026 229.521622 -26.874636 -59.430842 -2.018822 -1.152020 1.108057 -0.000003 -0.000002 0.000000 -9.108332 -0.517930 2.260346 244.810318 19.198333 -330.128232 -3.699984 0.000095 0.001805 35.303168 165.237671 -135.723222 -2.849934 0.000178 0.000082 -160.624753 9.298356 50.941982 -2.772170 0.000001 -0.000025 -0.000000 -0.000000 -0.000001 -9.532413 0.000084 0.000568 204.619231 16.335611 -293.223791 -3.700011 0.000329 0.004164 -40.304636 177.321410 172.941223 -2.949911 0.000399 -0.001837 100.823127 -10.474931 12.656727 -2.946612 -0.000010 -0.000156 -0.000000 0.000000 0.000001 -9.103362 -0.042904 -1.864540 187.864681 13.508230 -240.166117 -3.379084 0.000412 -0.000868 99.742940 -25.544078 30.095736 -2.889517 0.000218 0.000338 40.606680 -33.832297 12.840424 -2.638800 -0.000018 0.000941 -0.000000 -0.000000 -0.000001 -8.076585 -0.486472 -3.805706 187.180173 3.297428 -311.598038 -3.599670 0.000284 -0.003621 -84.168360 -134.726465 -130.430986 -2.099739 0.000134 -0.005798 27.522258 -40.510091 10.292985 -2.115780 -0.000042 -0.003684 0.000002 0.000000 -0.000005 4.570446 11.014691 -2.160851 -0.000018 0.000010 -0.000021 10.592520 -0.524546 -2.232377 58.918462 -69.236323 42.603431 27.841717 -0.000059 -0.000096 65.186943 -106.635673 81.281225 28.328840 -0.000012 0.000021 0.000022 -0.000089 -0.000000 2.466119 -1.576172 2.681870 -131.256975 61.358881 78.826066 3.217807 -1.872000 1.916548 78.589140 138.567121 -133.900340 2.656029 -1.528737 1.514601 249.062821 33.274137 49.478546 2.020907 -1.154081 1.115153 0.000000 0.000005 0.000002 9.109247 -0.517843 2.260123 262.851607 -18.581950 -20.998961 3.699909 0.000252 -0.000084 239.620849 -17.321397 -29.790113 2.849892 0.000310 0.000578 228.734443 -15.309983 -33.054748 2.774879 -0.000030 -0.000032 0.000001 0.000002 -0.000000 9.533205 0.000050 0.000122 182.219079 -18.684392 -166.609446 3.700025 0.000312 -0.000340 124.905432 -4.011973 7.678387 2.950000 0.000173 -0.000212 268.447799 -181.904767 -181.851560 2.952877 -0.000017 0.000076 0.000001 -0.000002 0.000002 9.104393 -0.043027 -1.864995 180.914704 -17.793239 185.847658 3.149899 0.000340 -0.000132 111.172667 17.225268 -24.932610 2.949897 0.000155 -0.000186 63.601772 27.363749 -17.166921 2.644325 0.000044 0.000061 -0.000002 -0.000001 -0.000000 8.077547 -0.486819 -3.806168 185.171824 -15.979364 -142.322441 3.599820 0.000340 0.014539 116.636968 19.071493 -30.069068 2.099915 0.000131 0.007513 238.254210 150.358063 163.293690 2.125487 -0.000029 0.007503 0.000002 0.000001 -0.000003 -8.207786 -6.751667 -1.599560 -0.077001 -0.000003 0.000080 -0.000002 -44.370110 0.345938 0.153719 -0.000000 -0.000000 0.000000 -44.423679 -3.043532 -0.076700 0.000000 -0.000002 -0.000006 -8.728667 10.710559 -0.000009 -0.000000 -0.000000 -0.000001 -0.000679 9.278123 0.000000 -0.000000 -0.000000 8.207792 -6.751710 -1.599556 -0.074518 -0.000003 0.000081 -0.000002 -44.370014 0.346960 0.148822 0.000002 0.000000 -0.000001 -44.423664 -3.044403 -0.074314 0.000000 -0.000002 -0.000004 -8.728671 10.710558 0.000007 -0.000000 -0.000000 0.000000 -0.000680 9.278137 -0.000000 0.000000 -0.000001 
0.000006 104.270477 1.554256 0.000010 0.000003 -0.000113 -0.000005 10.181587 0.131522 0.000001 -0.000003 0.000084 -0.000000 9.893967 -1.470711 0.000001 0.000000 -0.000000 -0.000000 9.220802 -1.370642 0.000000 -0.000000 -0.000000 0.000001 16.740433 -2.049030 0.000000 -0.000000 -0.000000 0.000000 9.617859 1.685014 0.000000 0.000000 0.000000 0.000002 22.037384 7.501101 0.000000 -0.000000 0.000000 -4.569968 11.014880 -2.160881 0.000008 0.000001 -0.000038 -10.592784 -0.524835 -2.231744 66.146311 68.058689 -47.474213 -27.841503 0.000019 0.000568 57.805735 106.269534 -72.724801 -28.328838 0.000021 0.000011 -0.000321 -0.000044 0.000008 -2.464481 -1.574182 2.682132 78.018000 -121.022223 127.515438 -3.214922 -1.873047 1.924638 231.598983 -41.627647 -66.112488 -2.654631 -1.528185 1.513154 197.789151 -24.031319 -85.204315 -2.018823 -1.151981 1.108068 0.000002 0.000001 0.000004 -9.108206 -0.517756 2.260444 210.126836 24.648660 -281.854778 -3.700030 0.000057 0.001754 -32.331445 152.363461 -260.554395 -2.850123 0.000245 -0.000081 -233.122607 23.937349 -45.955743 -2.772176 -0.000019 -0.000011 -0.000002 -0.000002 -0.000001 -9.532484 -0.000067 0.000542 167.374865 15.734469 -463.550404 -3.700009 0.000350 0.003886 -97.974986 173.137181 174.107136 -2.950013 0.000121 -0.002056 19.383723 4.684636 -0.799227 -2.946620 0.000028 -0.000156 -0.000000 -0.000002 0.000004 -9.103634 -0.043012 -1.864577 164.229399 10.072625 -64.635993 -3.379108 0.000270 -0.001055 56.055284 -26.044510 14.034295 -2.889625 0.000015 0.000341 -0.919913 -17.316630 -0.133536 -2.638803 0.000001 0.000947 -0.000003 -0.000000 0.000000 -8.076694 -0.486527 -3.805739 168.685059 1.871912 -377.357269 -3.599728 0.000172 -0.003760 -129.716344 -137.810637 -159.497389 -2.099851 -0.000008 -0.005801 -2.960708 -24.143336 -0.680924 -2.115766 -0.000024 -0.003678 0.000000 -0.000002 -0.000004 4.570446 11.014691 -2.160851 -0.000018 0.000010 -0.000021 10.592518 -0.524548 -2.232385 60.975407 -65.760829 41.673549 27.841742 -0.000067 -0.000099 60.416807 -103.509331 72.903226 28.328833 -0.000014 0.000028 0.000017 -0.000089 -0.000000 2.466149 -1.576134 2.681869 -134.013762 54.262086 77.081157 3.217812 -1.872011 1.916538 81.892028 134.203764 -134.378562 2.656047 -1.528769 1.514625 255.929265 42.264705 49.123188 2.020895 -1.154074 1.115142 0.000002 0.000002 0.000001 9.109290 -0.517818 2.260103 261.651297 -10.112449 -11.685177 3.699911 0.000242 -0.000097 237.393880 -14.963553 -26.997817 2.849891 0.000338 0.000548 222.351139 -12.517117 -31.612089 2.774884 -0.000017 -0.000027 -0.000000 0.000000 0.000001 9.533291 0.000391 0.000222 214.976953 -12.213243 -37.497759 3.699975 -0.000029 -0.000163 176.179484 -11.719231 143.966236 2.949940 -0.000033 0.000018 356.080929 -163.984154 -27.317454 2.952878 -0.000030 0.000068 -0.000000 0.000001 -0.000002 9.104389 -0.042681 -1.864920 209.362496 -12.662349 314.093052 3.149778 -0.000038 0.000077 182.037546 13.380103 -197.255891 2.949823 -0.000072 0.000014 20.786386 135.321607 -48.109916 2.644327 0.000029 0.000052 -0.000003 -0.000001 0.000003 8.077678 -0.486504 -3.806095 209.830392 -8.132185 -31.035130 3.599911 -0.000021 0.014775 16.878009 144.874992 -51.814136 2.099950 -0.000012 0.007716 106.840804 113.751719 231.202095 2.125510 -0.000003 0.007512 -0.000000 0.000001 0.000000 -8.207786 -6.751667 -1.599560 -0.077001 -0.000003 0.000080 -0.000002 -44.370110 0.345938 0.153719 -0.000000 -0.000000 0.000000 -44.423679 -3.043532 -0.076700 0.000000 -0.000002 -0.000006 -8.728667 10.710559 -0.000009 -0.000000 -0.000000 -0.000001 -0.000679 9.278123 0.000000 -0.000000 -0.000000 8.207792 -6.751710 -1.599556 -0.074518 -0.000003 0.000081 -0.000002 -44.370014 0.346960 0.148822 0.000002 0.000000 -0.000001 -44.423664 -3.044403 -0.074314 0.000000 -0.000002 -0.000004 -8.728671 10.710558 0.000007 -0.000000 -0.000000 0.000000 -0.000680 9.278137 -0.000000 0.000000 -0.000001 
